<?xml version="1.0" encoding="UTF-8" standalone="no"?>
<svg
   width="631.146"
   height="656.53284"
   viewBox="0 0 631.146 656.53284"
   version="1.1"
   id="svg2"
   sodipodi:docname="trace.svg"
   inkscape:version="1.4.3 (0d15f75042, 2025-12-25)"
   inkscape:export-filename="migraine-pulse-dark-32.svg"
   inkscape:export-xdpi="96"
   inkscape:export-ydpi="96"
   xmlns:inkscape="http://www.inkscape.org/namespaces/inkscape"
   xmlns:sodipodi="http://sodipodi.sourceforge.net/DTD/sodipodi-0.dtd"
   xmlns="http://www.w3.org/2000/svg"
   xmlns:svg="http://www.w3.org/2000/svg">
  <defs
     id="defs2" />
  <sodipodi:namedview
     id="namedview2"
     pagecolor="#ffffff"
     bordercolor="#000000"
     borderopacity="0.25"
     inkscape:showpageshadow="2"
     inkscape:pageopacity="0.0"
     inkscape:pagecheckerboard="0"
     inkscape:deskcolor="#d1d1d1"
     inkscape:zoom="0.64339909"
     inkscape:cx="354.36792"
     inkscape:cy="366.80189"
     inkscape:window-width="1920"
     inkscape:window-height="1057"
     inkscape:window-x="1920"
     inkscape:window-y="0"
     inkscape:window-maximized="1"
     inkscape:current-layer="svg2">
    <inkscape:page
       x="0"
       y="0"
       width="631.146"
       height="656.53284"
       id="page2"
       margin="0"
       bleed="0" />
  </sodipodi:namedview>
  <path
     d="m 50,17.271 c -0.275,0.275 2.425,-1.085 6,-3.022 C 79.219612,1.6722515 83.613875,1.2296389 176,0.56899999 L 255.5,0 m 370.986,113.561 c 0.28,1.925 0.946,6.875 1.48,11 0.558,4.3 1.057,48.466 1.172,103.5 l 0.199,96 0.904,-98.562 0.905,-98.562 -2.584,-8.438 c -1.421,-4.641 -2.355,-6.863 -2.076,-4.938 m -325.547,4.404 c -11.466,2.993 -19.971,14.274 -27.015,35.828 -6.629,20.285 -9.408,33.254 -21.913,102.268 -17.187,94.848 -25.597,100.188 -42.525,27 -19.712,-85.226 -56.298,-93.784 -76.949,-18 -9.603,35.238 -11.339,39.722 -17.087,44.107 l -3.793,2.893 -21.078,0.354 c -25.893,0.436 -28.278,1.331 -30.098,11.299 -2.276,12.463 3.748,15.082 33.764,14.673 41.075,-0.558 45.787,-5.334 61.698,-62.523 3.448,-12.39 9.432,-28.038 11.548,-30.195 3.313,-3.379 9.799,13.031 17.395,44.007 13.965,56.957 23.056,72.385 42.614,72.32 25.302,-0.083 35.737,-22.926 52.503,-114.935 10.501,-57.624 14.679,-75.67 21.085,-91.057 5.854,-14.062 11.019,2.157 22.943,72.057 16.025,93.944 25.453,117.356 48.76,121.083 20.57,3.289 34.671,-16.326 47.15,-65.583 7.469,-29.485 14.289,-48.585 17.758,-49.735 2.965,-0.983 9.004,15.117 16.78,44.735 10.256,39.065 15.656,49.181 30.18,56.54 l 5.841,2.96 26.685,0.309 c 32.438,0.376 36.833,-1.154 36.797,-12.809 -0.035,-11.067 -4.456,-12.994 -29.88,-13.024 -35.295,-0.041 -34.578,0.604 -45.535,-40.976 -14.128,-53.615 -22.648,-68 -40.272,-68 -18.101,0 -29.416,18.381 -41.796,67.895 -18.689,74.745 -28.236,65.958 -45.968,-42.31 -14.969,-91.399 -26.484,-117.213 -49.592,-111.181 m -140.173,248.513 -3.266,2.917 -0.267,34.833 c -0.257,33.436 -0.186,34.964 1.75,38.108 3.792,6.155 11.761,6.694 16.457,1.114 l 2.56,-3.042 v -34.519 c 0,-30.411 -0.198,-34.855 -1.665,-37.338 -3.363,-5.694 -10.458,-6.638 -15.569,-2.073 m 135.338,0.618 -3.104,3.535 v 81.565 81.565 l 3.4,3.4 c 5.585,5.585 13.492,4.378 17.106,-2.611 2.25,-4.352 2.25,-160.626 0,-164.978 -3.675,-7.105 -12.265,-8.328 -17.402,-2.476 m 139.006,-2.139 c -4.913,2.723 -5.037,3.717 -5.075,40.777 l -0.035,34.674 2.56,3.042 c 3.226,3.834 8.044,4.884 12.302,2.683 6.133,-3.172 6.243,-3.956 5.925,-42.178 l -0.287,-34.56 -3.266,-2.917 c -3.605,-3.22 -8.052,-3.778 -12.124,-1.521 m -205.71,47.004 -3.4,3.4 v 36.65 c 0,39.754 0.148,40.93 5.472,43.355 5.747,2.619 11.147,0.766 14.034,-4.816 2.152,-4.162 2.216,-70.325 0.073,-75.455 -2.897,-6.934 -10.84,-8.473 -16.179,-3.134 m 137.375,-1.841 c -5.145,2.792 -5.252,3.532 -5.595,38.941 -0.449,46.417 2.156,53.912 15.915,45.785 5.893,-3.482 9.314,-72.903 3.987,-80.919 -3.284,-4.942 -9.277,-6.537 -14.307,-3.807 M 60.5,644.23 C 35.766,632.09 18.617,615.792 1.309,587.975 c -0.677,-1.087 -1.217,-1.36 -1.25,-0.632"
     stroke="none"
     fill="#4cc1f2"
     fill-rule="evenodd"
     id="path1"
     sodipodi:nodetypes="cccccccccccccccccccccccccccccccscccccccscccccccscsccccccsccccccccccccccscccccccccccc" />
  <path
     d="M 100.5,1.249 C 42.120957,6.7199651 10.667599,53.98399 7.642,58.74 L 4.029,64.42 2.018,282.24 C 0.912,402.042 0.005,519.274 0.003,542.757 L 0,585.454 l 3.419,5.833 c 19.692263,33.60036 53.711159,58.1049 92.581,63.853 10.654,1.576 26.55,1.652 216,1.029 l 204.5,-0.673 c 75.7758,-18.70023 91.32435,-59.23208 102.657,-97.27 l 8.986,-30.165 0.573,-196 C 629.307,129.874 629.274,127.665 625.399,108.607 615.003,57.492 573.538,14.176 524,2.682 517.942,1.276 114.766,-0.08800001 100.5,1.249 m 200.439,116.716 c -11.466,2.993 -19.971,14.274 -27.015,35.828 -6.629,20.285 -9.408,33.254 -21.913,102.268 -17.187,94.848 -25.597,100.188 -42.525,27 -19.712,-85.226 -56.298,-93.784 -76.949,-18 -9.603,35.238 -11.339,39.722 -17.087,44.107 l -3.793,2.893 -21.078,0.354 c -25.893,0.436 -28.278,1.331 -30.098,11.299 -2.276,12.463 3.748,15.082 33.764,14.673 41.075,-0.558 45.787,-5.334 61.698,-62.523 3.448,-12.39 9.432,-28.038 11.548,-30.195 3.313,-3.379 9.799,13.031 17.395,44.007 13.965,56.957 23.056,72.385 42.614,72.32 25.302,-0.083 35.737,-22.926 52.503,-114.935 10.501,-57.624 14.679,-75.67 21.085,-91.057 5.854,-14.062 11.019,2.157 22.943,72.057 16.025,93.944 25.453,117.356 48.76,121.083 20.57,3.289 34.671,-16.326 47.15,-65.583 7.469,-29.485 14.289,-48.585 17.758,-49.735 2.965,-0.983 9.004,15.117 16.78,44.735 10.256,39.065 15.656,49.181 30.18,56.54 l 5.841,2.96 26.685,0.309 c 32.438,0.376 36.833,-1.154 36.797,-12.809 -0.035,-11.067 -4.456,-12.994 -29.88,-13.024 -35.295,-0.041 -34.578,0.604 -45.535,-40.976 -14.128,-53.615 -22.648,-68 -40.272,-68 -18.101,0 -29.416,18.381 -41.796,67.895 -18.689,74.745 -28.236,65.958 -45.968,-42.31 -14.969,-91.399 -26.484,-117.213 -49.592,-111.181 m -140.173,248.513 -3.266,2.917 -0.267,34.833 c -0.257,33.436 -0.186,34.964 1.75,38.108 3.792,6.155 11.761,6.694 16.457,1.114 l 2.56,-3.042 v -34.519 c 0,-30.411 -0.198,-34.855 -1.665,-37.338 -3.363,-5.694 -10.458,-6.638 -15.569,-2.073 m 135.338,0.618 -3.104,3.535 v 81.565 81.565 l 3.4,3.4 c 5.585,5.585 13.492,4.378 17.106,-2.611 2.25,-4.352 2.25,-160.626 0,-164.978 -3.675,-7.105 -12.265,-8.328 -17.402,-2.476 m 139.006,-2.139 c -4.913,2.723 -5.037,3.717 -5.075,40.777 l -0.035,34.674 2.56,3.042 c 3.226,3.834 8.044,4.884 12.302,2.683 6.133,-3.172 6.243,-3.956 5.925,-42.178 l -0.287,-34.56 -3.266,-2.917 c -3.605,-3.22 -8.052,-3.778 -12.124,-1.521 m -205.71,47.004 -3.4,3.4 v 36.65 c 0,39.754 0.148,40.93 5.472,43.355 5.747,2.619 11.147,0.766 14.034,-4.816 2.152,-4.162 2.216,-70.325 0.073,-75.455 -2.897,-6.934 -10.84,-8.473 -16.179,-3.134 m 137.375,-1.841 c -5.145,2.792 -5.252,3.532 -5.595,38.941 -0.449,46.417 2.156,53.912 15.915,45.785 5.893,-3.482 9.314,-72.903 3.987,-80.919 -3.284,-4.942 -9.277,-6.537 -14.307,-3.807"
     stroke="none"
     fill="#142c4c"
     fill-rule="evenodd"
     id="path2"
     sodipodi:nodetypes="ccccccccccccsccccccccccccccccccccccscccccccscccccccscsccccccsccccccccccccccsccccccccc" />
</svg>
